<svg xmlns="http://www.w3.org/2000/svg" viewBox="0 0 120 45" width="120" height="45">
  <path fill="#fff" d="M72.8 4.3v14.9H77V4.3zm-33 0v14.9H44V7.6h3.3c1.1 0 1.8.3 2.4.8.7.7.9 1.8.9 3.9v6.8h4.1v-7.4C54.7 5 51 4.2 47.3 4.2h-7.5zM79.6 4.3v14.9h6.8c3.6 0 4.8-.6 6.1-2 .9-.9 1.5-3 1.5-5.3 0-1.6-.5-3.5-1.4-4.6C91 4.7 88.8 4.3 85.5 4.3zm4.2 3.2h1.8c2.6 0 4.3 1.2 4.3 4.2 0 3.1-1.7 4.2-4.3 4.2h-1.8zM66.8 4.3L63.3 16.1 59.9 4.3h-4.5l4.8 14.9h6L71 4.3zm29.1 14.8h4.2V4.3h-4.2zm11.8-14.8l-5.9 14.8h4.1l.9-2.6h6.9l.9 2.6h4.5L113.2 4.3zm2.7 2.7l2.5 7h-5.2z"/>
  <path fill="#80bc00" d="M12.8 6.8v-2c.2 0 .4 0 .6 0 5.6-.2 9.3 4.8 9.3 4.8s-4 5.5-8.2 5.5c-.6 0-1.2-.1-1.7-.3V8.5c2.2.3 2.6 1.2 3.9 3.4l2.9-2.5s-2.1-2.8-5.7-2.8c-.4.1-.8.1-1.1.2zm0-6.8v3.1c.2 0 .4 0 .6 0 7.8-.3 12.8 6.4 12.8 6.4s-5.8 7.1-11.9 7.1c-.6 0-1.1-.1-1.6-.1v1.9c.4.1.9.1 1.3.1 5.6 0 9.7-2.9 13.7-6.3.7.5 3.3 1.8 3.9 2.4-3.8 3.1-12.5 5.7-17.5 5.7-.5 0-.9 0-1.4-.1v2.7H34.1V0zm0 14.7v1.6c-5.3-.9-6.7-6.3-6.7-6.3s2.5-2.8 6.7-3.2v1.8s0 0 0 0c-2.2-.3-3.9 1.8-3.9 1.8s.9 3.3 3.9 4.3zm-9.3-5s3.1-4.6 9.3-5V3.1C5.9 3.6 0 9.4 0 9.4s3.4 9.7 12.8 10.6v-1.8c-6.9-.8-9.3-8.5-9.3-8.5z"/>
  <path fill="#fff" d="M44.7 43.3c-1.7 0-3-.6-4.2-1.7-.7-.7-1.1-1.5-1.3-2.3-.2-.9-.3-2.2-.3-3.9 0-1.7.1-3 .3-3.9.2-.9.6-1.7 1.3-2.3 1.1-1.1 2.5-1.7 4.2-1.7 3 0 5.2 1.7 5.7 4.9h-3.1c-.3-1.3-1.2-2.2-2.6-2.2-.8 0-1.5.3-1.9.8-.6.7-.8 1.4-.8 4.4 0 3 .1 3.7.8 4.4.5.5 1.1.8 1.9.8 1.5 0 2.3-.9 2.6-2.2h3.1c-.5 3.2-2.7 4.9-5.7 4.9z"/>
  <path fill="#fff" d="M58.5 43.3c-3.2 0-5.7-2.2-5.7-5.4V27.7h3v10.1c0 1.8 1 2.9 2.7 2.9 1.6 0 2.7-1.1 2.7-2.9V27.7h3v10.2c0 3.3-2.5 5.4-5.7 5.4z"/>
  <path fill="#fff" d="M77.3 41.7c-1 1-2.5 1.5-4.1 1.5H67.6V27.7h5.6c1.6 0 3.1.5 4.1 1.5 1.7 1.7 1.6 3.9 1.6 6.2 0 2.3.1 4.6-1.6 6.3zm-2.1-10.4c-.5-.6-1.2-1-2.3-1h-2.3v10.1h2.3c1 0 1.7-.3 2.3-1 .6-.7.7-1.8.7-4.2 0-2.2-.1-3.2-.7-3.9z"/>
  <path fill="#fff" d="M90.6 43.2l-.9-2.7h-5.5l-.9 2.7H80l5.6-15.5h2.4l5.7 15.5zm-3.7-10.9l-2 5.6h3.9z"/>
</svg>
